<?xml version="1.0" encoding="utf-8"?>
<!-- Generator: Adobe Illustrator 22.0.1, SVG Export Plug-In . SVG Version: 6.00 Build 0)  -->
<svg version="1.1"
	 id="svg3799" inkscape:version="0.48.0 r9654" sodipodi:docname="carrier2.svg" xmlns:cc="http://creativecommons.org/ns#" xmlns:dc="http://purl.org/dc/elements/1.1/" xmlns:inkscape="http://www.inkscape.org/namespaces/inkscape" xmlns:rdf="http://www.w3.org/1999/02/22-rdf-syntax-ns#" xmlns:sodipodi="http://sodipodi.sourceforge.net/DTD/sodipodi-0.dtd" xmlns:svg="http://www.w3.org/2000/svg"
	 xmlns="http://www.w3.org/2000/svg" xmlns:xlink="http://www.w3.org/1999/xlink" x="0px" y="0px" viewBox="0 0 405.4 193.5"
	 style="enable-background:new 0 0 405.4 193.5;" xml:space="preserve">
<style type="text/css">
	.st0{fill:#191919;}
	.st1{fill:none;stroke:#000000;}
	.st2{fill:#3C3C3C;}
	.st3{fill:none;stroke:#000000;stroke-width:0.5;}
	.st4{fill:#FFFFFF;stroke:#000000;}
	.st5{fill:none;stroke:#898887;stroke-width:0.6;}
	.st6{fill:none;stroke:#5B5B5B;stroke-dasharray:6,6;}
	.st7{fill:none;stroke:#898887;stroke-dasharray:6,6;}
	.st8{fill:none;stroke:#898887;stroke-width:0.3;}
	.st9{fill:none;stroke:#434343;stroke-width:2.5;}
	.st10{fill:none;stroke:#636363;}
</style>
<sodipodi:namedview  bordercolor="#666666" borderopacity="1.0" fit-margin-bottom="0" fit-margin-left="0" fit-margin-right="0" fit-margin-top="0" id="base" inkscape:current-layer="layer2" inkscape:cx="198.36174" inkscape:cy="114.73593" inkscape:document-units="px" inkscape:pageopacity="0.0" inkscape:pageshadow="2" inkscape:window-height="823" inkscape:window-maximized="1" inkscape:window-width="1440" inkscape:window-x="0" inkscape:window-y="24" inkscape:zoom="1.6762837" pagecolor="#ffffff" showgrid="false">
	</sodipodi:namedview>
<g id="layer2" transform="translate(-151.1875,-152.96875)" inkscape:groupmode="layer" inkscape:label="top">
	<path id="path5842" inkscape:connector-curvature="0" sodipodi:nodetypes="ccsssscssscc" class="st0" d="M200.9,329.3
		c4.2,0.1,9.8,0.3,13.3,0.4c55.7,2.8,117.9,0.2,174.3-6.8c38.1-4.7,70.7-10.1,105.3-18c4-0.9,13.4-2.9,13.5-2.8
		c0.1,0.1-2,3.3-3.7,6.3l-3.4,6.1l-15.3,3c-53.3,10.4-94.5,18-136.8,22.7c-50.7,5.7-98.8,7.4-139.6,4.1l-11-0.9
		C198.8,339,200.4,334,200.9,329.3L200.9,329.3z"/>
	<path id="path5493" inkscape:connector-curvature="0" sodipodi:nodetypes="ccc" class="st1" d="M247,237.2l-1.5,7.4l5.6,7.7"/>
	<path id="path5489" inkscape:connector-curvature="0" sodipodi:nodetypes="scscscscsccscccsss" class="st2" d="M198.4,270.8
		c-20.2-5.4-40.6-11.2-41.4-11.4c-0.9-0.2,6.4-1,14.3-1.5c34.6-2.4,86.8-6,87.1-6.2c0.2-0.1-2.2-3-5-6.8c-2.8-3.8-5.3-7.4-5.2-7.4
		c0.2,0,50.2,0.2,107.7,1.2l103.7,1.7l46.8,12.7c25.6,7,47.8,12.9,48.5,13.2c0.9,1.3,1.2,3.7,1,5.6c-0.2,0.1-26.6,4.1-58.5,9l-58,9
		l-39.8-6.5l-39-6.1l-59.1,2.7c-58.5,2.7-57.1,2.8-61,1.9C238.3,281.3,218.6,276.2,198.4,270.8L198.4,270.8z"/>
	<path id="path3829" inkscape:connector-curvature="0" sodipodi:nodetypes="ccccccccccccccccccccccc" class="st1" d="M436.7,298.7
		l117.6-19.2l1.7-7.5 M358.5,286.7l78.3,11.9l2.7-8.5 M239.9,293.4l118.7-7l1.8-8.6 M154,258.7l-2.2,10.3l88.1,24.3l2.1-10.7
		 M153.6,258.9c4,0,104.5-7.3,104.5-7.3l-10.5-14.2l211.6,2.7l95.8,25.9l1.2,5.8l-117.1,18.2l-78.7-12.7l-118.4,5.2L153.6,258.9z"/>
	<path id="path3832" inkscape:connector-curvature="0" sodipodi:nodetypes="ccccc" class="st1" d="M167.2,273.3
		c30.5,20.5,38.3,35.3,33.7,55.5c104.1,6.3,206.8-4,306.9-27.2l19.7-13.9l1.7-3.9"/>
	<path id="path4967" inkscape:connector-curvature="0" sodipodi:nodetypes="cccc" class="st1" d="M358.9,287.2
		c-1.5,9.2-3.3,19.5,12.7,24.6c22.5,2.1,131.8-12.6,143.6-20.6l4.3-6"/>
	<path id="path5491" inkscape:connector-curvature="0" sodipodi:nodetypes="cc" class="st3" d="M204,324.7
		c3-13.4,12.1-34.5,31.3-30.5"/>
	<path id="path5519" inkscape:connector-curvature="0" sodipodi:nodetypes="cc" class="st1" d="M395.5,178.4l-7.6-8.6"/>
	<path id="path5517" inkscape:connector-curvature="0" sodipodi:nodetypes="cc" class="st1" d="M399.3,179.4l10.3-4.4"/>
	<path id="path5509" inkscape:connector-curvature="0" class="st4" d="M382.4,167.1l35.1,8l-0.8,2.2l-34.9-8.8L382.4,167.1z"/>
	<path id="path5523" inkscape:connector-curvature="0" sodipodi:nodetypes="cc" class="st1" d="M401.2,167.8l9.2-2.3"/>
	<path id="path5521" inkscape:connector-curvature="0" sodipodi:nodetypes="cc" class="st1" d="M391.9,161.4l7,6.2"/>
	<path id="path5507" inkscape:connector-curvature="0" class="st4" d="M383.2,157.5l36.2,8.5l-0.6,2l-36-8.6L383.2,157.5z"/>
	<path id="path5495" inkscape:connector-curvature="0" class="st4" d="M369.5,231.3l-1.4,8.8l16.5,5.7l11.4-1l2.2-10.3l4.1-5.2
		l-0.7-2.7l1.1-5l4.2-1.3l0.7-3.3l-2.6-1.9l0.9-4.1l-10.2,1.3l-26.1-6.8l-1.1,7.1l0.9,3.7l-1.6,5.7l0.8,4.5l2.1,2.2L369.5,231.3z"/>
	<path id="path5497" inkscape:connector-curvature="0" sodipodi:nodetypes="ccc" class="st1" d="M369,210.5l24.6,7.3l12.2-2"/>
	<path id="path5499" inkscape:connector-curvature="0" class="st1" d="M369.3,216.2l23.2,6.8l10.1-1.4"/>
	<path id="path5501" inkscape:connector-curvature="0" sodipodi:nodetypes="ccc" class="st1" d="M370.6,228.5
		c0.9,0.2,16.4,5.5,16.4,5.5l12.3-1"/>
	<path id="path5503" inkscape:connector-curvature="0" sodipodi:nodetypes="ccc" class="st1" d="M369.3,205
		c1.2,0.1,11.9-1.2,11.9-1.2l24.6,6.6"/>
	<path id="path5513" inkscape:connector-curvature="0" sodipodi:nodetypes="cc" class="st1" d="M384.9,182.4l7.3,9.2"/>
	<path id="path5511" inkscape:connector-curvature="0" class="st4" d="M376,178.6c1.1,0.2,41.5,10,41.5,10l-0.6,1.8l-41.7-10
		L376,178.6z"/>
	<path id="path5505" inkscape:connector-curvature="0" class="st4" d="M388,207.8l13.3-54.2l3.4,0.7l-10.4,55.3L388,207.8z"/>
	<path id="path5515" inkscape:connector-curvature="0" sodipodi:nodetypes="cc" class="st1" d="M397.4,191.7l9.8-3.7"/>
	<path id="path5540" inkscape:connector-curvature="0" class="st5" d="M372.9,278.6l101.3-32.4"/>
	<path id="path5542" inkscape:connector-curvature="0" class="st5" d="M431.5,286.8l74.3-33"/>
	<path id="path5544" inkscape:connector-curvature="0" sodipodi:nodetypes="cc" class="st6" d="M205.7,269.3L411.2,256"/>
	<path id="path5546" inkscape:connector-curvature="0" class="st7" d="M408,281.8l79.7-30.1"/>
	<path id="path5542-3" inkscape:connector-curvature="0" class="st5" d="M439.3,288.4l74.3-32.9"/>
	<path id="path5540-2" inkscape:connector-curvature="0" class="st5" d="M365,276.9l101.3-32.4"/>
	<path id="path5588" inkscape:connector-curvature="0" sodipodi:nodetypes="cc" class="st8" d="M378.3,272.2l7.1,1.7"/>
	<path id="path5588-7" inkscape:connector-curvature="0" sodipodi:nodetypes="cc" class="st8" d="M390.9,268.1l7.1,1.7"/>
	<path id="path5588-7-6" inkscape:connector-curvature="0" sodipodi:nodetypes="cc" class="st8" d="M403.7,264.5l7.1,1.7"/>
	<path id="path5588-7-6-1" inkscape:connector-curvature="0" sodipodi:nodetypes="cc" class="st8" d="M413.3,260.8l7.1,1.7"/>
	<path id="path5588-7-6-1-9" inkscape:connector-curvature="0" sodipodi:nodetypes="cc" class="st8" d="M421.8,258.2l7.1,1.7"/>
	<path id="path5588-7-6-1-9-0" inkscape:connector-curvature="0" sodipodi:nodetypes="cc" class="st8" d="M433.7,255.1l7.1,1.7"/>
	<path id="path5588-7-6-1-9-0-0" inkscape:connector-curvature="0" sodipodi:nodetypes="cc" class="st8" d="M441.7,252.4l7.1,1.7"/>
	<path id="path5588-7-6-1-9-0-0-1" inkscape:connector-curvature="0" sodipodi:nodetypes="cc" class="st8" d="M450.9,249.9l7.1,1.7"
		/>
	<path id="path5588-7-6-1-9-0-0-1-7" inkscape:connector-curvature="0" sodipodi:nodetypes="cc" class="st8" d="M458.4,247.5
		l7.1,1.7"/>
	<path id="path5588-7-6-1-9-0-0-1-4" inkscape:connector-curvature="0" sodipodi:nodetypes="cc" class="st8" d="M433,285.9l7.1,1.7"
		/>
	<path id="path5588-7-6-1-9-0-0-1-43" inkscape:connector-curvature="0" sodipodi:nodetypes="cc" class="st8" d="M363.7,276.3
		l7.1,1.7"/>
	<path id="path5588-7-6-1-9-0-0-1-5" inkscape:connector-curvature="0" sodipodi:nodetypes="cc" class="st8" d="M444.1,281.1
		l7.1,1.7"/>
	<path id="path5588-7-6-1-9-0-0-1-8" inkscape:connector-curvature="0" sodipodi:nodetypes="cc" class="st8" d="M454.9,276.5
		l7.1,1.7"/>
	<path id="path5588-7-6-1-9-0-0-1-435" inkscape:connector-curvature="0" sodipodi:nodetypes="cc" class="st8" d="M462.7,273.4
		l7.1,1.7"/>
	<path id="path5588-7-6-1-9-0-0-1-6" inkscape:connector-curvature="0" sodipodi:nodetypes="cc" class="st8" d="M469.9,269.1
		l7.1,1.7"/>
	<path id="path5588-7-6-1-9-0-0-1-47" inkscape:connector-curvature="0" sodipodi:nodetypes="cc" class="st8" d="M485,263.2l7.1,1.7
		"/>
	<path id="path5588-7-6-1-9-0-0-1-41" inkscape:connector-curvature="0" sodipodi:nodetypes="cc" class="st8" d="M492.6,259.9
		l7.1,1.7"/>
	<path id="path5588-7-6-1-9-0-0-1-42" inkscape:connector-curvature="0" sodipodi:nodetypes="cc" class="st8" d="M499.1,257.3
		l7.1,1.7"/>
	<path id="path5840" inkscape:connector-curvature="0" sodipodi:nodetypes="cccc" class="st1" d="M200.9,329.1l-3.2,14.7
		c95.2,8.1,197.6-7.3,302.5-29.2l7.6-12.9"/>
	<path id="path5844" inkscape:connector-curvature="0" sodipodi:nodetypes="cc" class="st3" d="M374.1,309.1
		c13.9-6.3,31.9-12.8,55.2-10.3"/>
	<path id="path5944" inkscape:connector-curvature="0" sodipodi:nodetypes="cc" class="st9" d="M175.4,261.9
		c2.5-0.1,195.2-15,195.2-15"/>
	<path id="path5944-7" inkscape:connector-curvature="0" sodipodi:nodetypes="cc" class="st9" d="M239,279c2.5-0.1,130-7.6,130-7.6"
		/>
	<g id="text5964" transform="matrix(1,0,-1.4090847,0.40558014,153.43616,201.7013)">
		<path id="path5969" inkscape:connector-curvature="0" class="st10" d="M285.6,150.8l10.2,3.1l-29.7,6.9l-10.2-3.1L285.6,150.8"/>
		<path id="path5971" inkscape:connector-curvature="0" class="st10" d="M334.9,165.7l10.2,3.1l25.5,7.7l-29.7,6.9l-35.7-10.8
			l6.6-1.5l10.2,3.1l-3.3,0.8l15.3,4.6l9.9-2.3l-15.3-4.6l3.3-0.8l15.3,4.6l9.9-2.3l-15.3-4.6l-3.3,0.8l-10.2-3.1L334.9,165.7"/>
	</g>
</g>
</svg>
